<?xml version="1.0" encoding="UTF-8"?> <svg xmlns="http://www.w3.org/2000/svg" width="160" height="60" viewBox="0 0 160 60" fill="none"><path fill-rule="evenodd" clip-rule="evenodd" d="M114.139 28.6796C116.078 29.8013 116.799 31.3711 116.799 33.3331C116.799 37.236 113.099 39.9997 108.182 39.9997C104.68 39.9997 101.905 39.1086 99.2246 37.0751C98.9153 36.8405 98.8522 36.4036 99.0777 36.0893L101.543 32.6554C101.753 32.3633 102.157 32.2891 102.462 32.4821C103.815 33.3369 105.695 34.1815 107.08 34.1815C107.775 34.1815 108.119 33.8665 108.152 33.5798C108.186 33.2816 107.997 32.9159 107.014 32.6627C106.79 32.605 106.554 32.5486 106.308 32.4899C104.864 32.1448 103.089 31.7209 101.512 30.4951C100.004 29.3227 99.3567 27.8129 99.3567 26.4729C99.3567 22.2684 103.333 20 107.824 20C110.902 20 113.287 21.0149 115.194 22.2003C115.55 22.4217 115.648 22.8914 115.404 23.2303L113.117 26.4062C112.914 26.6879 112.529 26.7697 112.227 26.5958C111.456 26.1521 110.053 25.4708 108.618 25.4708C107.924 25.4708 107.539 25.667 107.469 26.0089C107.389 26.3997 107.843 26.6775 108.484 26.8514C108.662 26.8996 108.916 26.9557 109.224 27.0237C110.452 27.2948 112.543 27.7567 114.139 28.6796ZM67.6842 30.0096H61.5313C61.1299 30.0096 60.8039 30.3321 60.8039 30.7291V33.7271C58.8162 33.7271 56.9976 32.188 57.217 29.6325C57.3817 27.7224 58.936 26.3875 60.8528 26.3875C62.0119 26.3875 62.9747 26.7987 63.8392 27.4954C64.1379 27.7352 64.581 27.671 64.8061 27.3612L67.5471 23.5852C67.768 23.2824 67.719 22.8598 67.4303 22.62C65.8614 21.3123 63.2415 20.0003 60.1427 20.0003C54.9929 20.0003 50.9442 22.9141 49.7101 27.0642L48.4934 23.4652C47.8555 21.5778 46.07 20.3058 44.0579 20.3058H40.4988C41.0209 21.5718 41.1223 22.3575 41.3348 24.003C41.389 24.4227 41.4504 24.8985 41.5279 25.4524C41.87 27.888 43.1183 29.9994 43.1183 29.9994C43.1183 29.9994 41.87 32.1109 41.5279 34.545C41.4504 35.0988 41.389 35.5744 41.3348 35.9942L41.3346 35.9959C41.1223 37.6408 41.0207 38.4274 40.4988 39.6931H44.0579C46.07 39.6931 47.8555 38.421 48.4934 36.5337L49.7332 32.8661C51.0394 37.456 55.2931 40 60.2754 40C63.3859 40 65.8829 39.0735 67.7132 37.8129C68.1547 37.5088 68.4116 37.0048 68.4116 36.4723V30.7291C68.4116 30.3321 68.0856 30.0096 67.6842 30.0096ZM98.3799 21.0231V38.9766C98.3799 39.3739 98.0541 39.6961 97.6524 39.6961H91.4454C91.0437 39.6961 90.718 39.3739 90.718 38.9766V21.0264C90.718 20.6291 91.0434 20.307 91.4451 20.3069L97.652 20.3036C98.0539 20.3034 98.3799 20.6256 98.3799 21.0231ZM74.859 20.306H89.1239C89.5256 20.306 89.8514 20.6282 89.8514 21.0255V25.7139C89.8514 26.1113 89.5256 26.4334 89.1239 26.4334H81.7976V28.0145H87.4061C87.8079 28.0145 88.1335 28.3366 88.1335 28.734V32.7695C88.1335 33.167 87.8079 33.489 87.4061 33.489H81.7976V38.9737C81.7976 39.371 81.4719 39.6932 81.0702 39.6932H74.859C74.4572 39.6932 74.1314 39.371 74.1314 38.9737V21.0255C74.1314 20.6282 74.4572 20.306 74.859 20.306ZM135.957 20.3059H129.436C129.035 20.3059 128.709 20.628 128.709 21.0253V26.5675H125.416V21.0253C125.416 20.628 125.09 20.3059 124.688 20.3059H118.168C117.766 20.3059 117.44 20.628 117.44 21.0253V38.9737C117.44 39.3711 117.766 39.6932 118.168 39.6932H124.688C125.09 39.6932 125.416 39.3711 125.416 38.9737V33.4315H128.709V38.9737C128.709 39.3711 129.035 39.6932 129.436 39.6932H135.957C136.359 39.6932 136.684 39.3711 136.684 38.9737V21.0253C136.684 20.628 136.359 20.3059 135.957 20.3059ZM30.4142 34.4374H31.7839C32.8736 34.4374 33.4337 33.8578 33.4337 33.0283C33.4337 32.1974 32.8736 31.6178 31.7839 31.6178H30.4142V34.4374ZM30.4142 25.4734H31.5602C32.6225 25.4734 33.1262 25.9702 33.1262 26.8282C33.1262 27.6862 32.5951 28.183 31.5602 28.183H30.4142V25.4734ZM40.4011 25.6717C40.4011 27.3021 39.7299 28.714 38.1076 29.5991C39.7009 30.4286 40.8485 32.1159 40.8485 33.9962C40.8485 37.7852 37.7453 39.6925 32.9909 39.6925H23.7274C23.3248 39.6925 23 39.3713 23 38.973V21.0248C23 20.6279 23.3248 20.3052 23.7274 20.3052H32.516C37.2141 20.3052 40.4011 22.0198 40.4011 25.6717Z" fill="#252628"></path></svg> 