<?xml version="1.0" encoding="UTF-8"?> <svg xmlns="http://www.w3.org/2000/svg" width="160" height="60" viewBox="0 0 160 60" fill="none"><path fill-rule="evenodd" clip-rule="evenodd" d="M139.68 46.1549C139.68 45.5316 140.35 45.2002 141.082 45.2002C142.317 45.2002 143.237 45.905 143.404 46.9833H145.831C145.601 44.7636 143.698 43.2067 141.122 43.2067C138.84 43.2067 137.082 44.3902 137.082 46.3811C137.082 48.6007 139.216 49.182 140.997 49.6396C142.275 49.971 143.361 50.2418 143.361 50.9888C143.361 51.591 142.67 52.0066 141.707 52.0066C140.409 52.0066 139.425 51.2807 139.28 50.2024H136.852C137.082 52.4221 139.049 54.0001 141.707 54.0001C144.114 54.0001 145.998 52.7351 145.998 50.7415C145.998 48.585 143.865 48.0037 142.084 47.5461C140.788 47.2121 139.68 46.9228 139.68 46.1549ZM126.457 43.4353H123.799V53.7869H126.457V48.3087C126.457 46.899 127.713 45.4262 129.847 45.7576V43.2486C128.235 43.0619 127.085 43.9534 126.457 45.3026V43.4353ZM117.555 48.477L115.524 44.2454L113.558 48.477H117.555ZM115.628 38.6435L123.163 53.7895H120.107L118.62 50.6993H112.508L111.064 53.7895H108.093L115.628 38.6435ZM101.085 47.5013H103.785C103.284 44.9897 101.106 43.2276 98.5111 43.2276C95.4975 43.2276 93.0485 45.4894 93.0485 48.6217C93.0485 51.7329 95.4975 53.9947 98.5111 53.9947C101.106 53.9947 103.282 52.3141 103.785 49.8025H101.085C100.666 50.9229 99.6825 51.6277 98.5111 51.6277C96.942 51.6277 95.6857 50.4048 95.6857 48.6611C95.6857 46.878 96.942 45.6735 98.5111 45.6735C99.6825 45.6761 100.666 46.3809 101.085 47.5013ZM89.2142 53.7897H91.8726V43.4381H89.2142V53.7897ZM88.8376 40.4477C88.8376 41.3813 89.6116 42.1493 90.5339 42.1493C91.4748 42.1493 92.2487 41.3813 92.2487 40.4477C92.2487 39.5141 91.4748 38.7461 90.5339 38.7461C89.6116 38.7461 88.8376 39.5141 88.8376 40.4477ZM80.7212 44.7214V43.4354H78.0628V53.7869H80.7212V47.5223C80.7212 46.3204 81.6621 45.3658 82.8972 45.3658C84.1747 45.3658 85.0732 46.2784 85.0732 47.6275V53.7896H87.7316V47.4198C87.7316 44.9923 86.3295 43.2092 83.8381 43.2092C82.4996 43.2092 81.3493 43.7878 80.7212 44.7214ZM71.3494 45.6552C69.738 45.6552 68.4605 46.8571 68.4605 48.6429C68.4605 50.3865 69.738 51.6095 71.3494 51.6095C72.9609 51.6095 74.2384 50.3865 74.2384 48.6429C74.2384 46.8598 72.9609 45.6552 71.3494 45.6552ZM71.3499 53.9946C68.294 53.9946 65.8238 51.7328 65.8238 48.6216C65.8238 45.4893 68.294 43.2275 71.3499 43.2275C74.4059 43.2275 76.876 45.4893 76.876 48.6216C76.876 51.7355 74.4059 53.9946 71.3499 53.9946ZM62.3442 43.4353H59.6858V53.7869H62.3442V48.3087C62.3442 46.899 63.6005 45.4262 65.7341 45.7576V43.2486C64.1226 43.0619 62.9723 43.9534 62.3442 45.3026V43.4353ZM133.372 40.4083L130.756 41.2394V51.1149C130.756 52.7113 131.885 53.7922 133.812 53.7922H136.407V51.4489H134.565C133.749 51.4489 133.372 51.0755 133.372 50.3917V45.6814H136.407V43.4407H133.372V40.4083ZM55.6374 40.4083L53.0214 41.2394V51.1149C53.0214 52.7113 54.1505 53.7922 56.0774 53.7922H58.6721V51.4489H56.8301C56.0138 51.4489 55.6374 51.0755 55.6374 50.3917V45.6814H58.6721V43.4407H55.6374V40.4083ZM49.4681 47.5012H52.1689C51.6653 44.9896 49.4893 43.2275 46.8946 43.2275C43.8811 43.2275 41.4321 45.4893 41.4321 48.6216C41.4321 51.7328 43.8811 53.9946 46.8946 53.9946C49.4893 53.9946 51.6653 52.3141 52.1689 49.8024H49.4681C49.0494 50.9228 48.0661 51.6276 46.8946 51.6276C45.3255 51.6276 44.0692 50.4047 44.0692 48.661C44.0692 46.8779 45.3255 45.6734 46.8946 45.6734C48.0661 45.676 49.0494 46.3808 49.4681 47.5012ZM37.6499 47.5854C37.4194 46.3625 36.33 45.5104 35.0976 45.5104C33.8625 45.5104 32.8368 46.3204 32.4816 47.5854H37.6499ZM40.5172 49.4739H32.4599C32.8151 50.781 33.9866 51.6515 35.4099 51.6515C36.2262 51.6515 36.9789 51.3412 37.4189 50.6968H40.3688C39.5737 52.6877 37.6892 53.9948 35.3675 53.9948C32.2267 53.9948 29.6743 51.712 29.6743 48.6007C29.6743 45.4685 32.1021 43.2067 35.0945 43.2067C37.6892 43.2067 40.5358 45.095 40.5358 49.0768C40.5384 49.203 40.5172 49.3292 40.5172 49.4739ZM25.8397 53.7896H28.4981V38.4385L25.8397 39.2696V53.7896ZM14 39.2669H24.6308V41.818H16.9314V45.2212H23.1678V47.7302H16.9314V51.278H24.6335V53.7896H14.0027V39.2669H14Z" fill="#252628"></path><path fill-rule="evenodd" clip-rule="evenodd" d="M79.4668 29.9017C72.8256 29.9017 67.4228 24.5407 67.4228 17.9509C67.4228 11.3611 72.8256 6 79.4668 6C86.1079 6 91.5107 11.3611 91.5107 17.9509C91.5107 24.5392 86.1079 29.9017 79.4668 29.9017ZM81.5061 13.3274H74.7L73.6676 14.9737H80.4661L81.5061 13.3274ZM82.8971 13.3425L78.7356 19.9173H74.12L75.1842 18.2694H77.9499L79.0066 16.6216H72.6107L71.5541 18.2694H73.0694L70.9667 21.5606H79.7393L82.9789 16.4894L84.1596 18.2694H83.0939L82.0857 19.9173H85.2405L86.3365 21.5606H88.3484L82.8971 13.3425Z" fill="#252628"></path></svg> 