<?xml version="1.0" encoding="UTF-8"?> <svg xmlns="http://www.w3.org/2000/svg" width="160" height="60" viewBox="0 0 160 60" fill="none"><path d="M95.6367 41.4941H108.668V43.6827H95.6367V41.4941Z" fill="#252628"></path><path d="M120.627 28.6802L116.322 34.895L112.017 28.6802H109.048L115.019 37.2172V43.6993H117.609V37.2172H117.625L123.58 28.6802H120.627Z" fill="#252628"></path><path fill-rule="evenodd" clip-rule="evenodd" d="M42.5567 35.8974L42.3588 35.747L42.5402 35.5632C43.233 34.8449 43.6454 33.8759 43.6454 32.8568C43.6454 30.5513 41.5505 28.6802 38.9773 28.6802H32V43.6993H39.3567C42.0784 43.6993 44.3052 41.7112 44.3052 39.2721C44.3052 37.969 43.6619 36.7494 42.5567 35.8974ZM34.5897 30.8687H38.9608C40.1814 30.8687 41.1546 31.7542 41.1546 32.8568C41.1546 33.9594 40.1649 34.8449 38.9608 34.8449H34.5897V30.8687ZM34.5897 41.494H39.3567C40.7258 41.494 41.8309 40.5084 41.8309 39.2721C41.8309 38.0358 40.7258 37.0334 39.3567 37.0334H34.5897V41.494Z" fill="#252628"></path><path d="M87.5711 38.6874L83.2825 28.6802H80.4289L86.9608 43.6993H88.165L94.7134 28.6802H91.8598L87.5711 38.6874Z" fill="#252628"></path><path fill-rule="evenodd" clip-rule="evenodd" d="M46.9278 36.1981C46.9278 31.8878 50.3753 28.3795 54.6309 28.3795C58.9031 28.3795 62.3505 31.8711 62.3505 36.1814C62.3505 40.4916 58.9031 44 54.6474 44C50.3918 44 46.9278 40.5084 46.9278 36.1981ZM49.4513 36.1981C49.4513 39.0883 51.777 41.4272 54.6307 41.4272C57.4843 41.4105 59.7935 39.0716 59.81 36.1981C59.81 33.2911 57.4843 30.9522 54.6307 30.9522C51.7606 30.9522 49.4513 33.3078 49.4513 36.1981Z" fill="#252628"></path><path d="M75.15 38.3532L66.7212 28.6802H65.4346V43.6993H68.0243V34.0095L76.4366 43.6993H77.7232V28.6802H75.15V38.3532Z" fill="#252628"></path><path fill-rule="evenodd" clip-rule="evenodd" d="M96.9736 33.6252C96.9736 30.7183 99.2994 28.3794 102.153 28.3794C105.007 28.3794 107.316 30.7183 107.332 33.6252C107.332 36.5321 105.023 38.871 102.153 38.871C99.2829 38.871 96.9736 36.5321 96.9736 33.6252ZM99.167 33.6086C99.167 35.2792 100.503 36.6325 102.153 36.6325C103.802 36.6325 105.122 35.2792 105.138 33.6086C105.138 31.9379 103.802 30.5847 102.153 30.5847C100.503 30.5847 99.167 31.9379 99.167 33.6086Z" fill="#252628"></path><path d="M46.0203 18.5728V23.6683H44.6348V16.1504H46.1853L48.4781 20.3103L50.7708 16.1504H52.3049V23.6683H50.9358V18.5728L48.9729 22.2148H47.9832L46.0203 18.5728Z" fill="#252628"></path><path d="M105.171 16.1504V17.4368H107.365V23.6683H108.751V17.4368H110.944V16.1504H105.171Z" fill="#252628"></path><path d="M97.1711 16.1504V17.4368H99.365V23.6683H100.751V17.4368H102.928V16.1504H97.1711Z" fill="#252628"></path><path d="M83.3818 16.1504H84.7674V23.6683H83.3818V16.1504Z" fill="#252628"></path><path fill-rule="evenodd" clip-rule="evenodd" d="M67.4642 20.6277H66.3426V23.6683H64.957V16.1504H68.6354C70.0045 16.1504 71.1261 17.1528 71.1261 18.3891C71.1261 19.5084 70.2189 20.4272 69.0313 20.5943L71.1261 23.6683H69.5426L67.4642 20.6277ZM68.6354 17.3365H66.3426V19.4416H68.6354C69.2787 19.4416 69.8065 18.9738 69.8065 18.3891C69.8065 17.8043 69.2787 17.3365 68.6354 17.3365Z" fill="#252628"></path><path fill-rule="evenodd" clip-rule="evenodd" d="M54.9773 23.6683L58.4082 16.1504H59.068L62.5155 23.6683H61.0309L60.3711 22.2315H57.1216L56.4619 23.6683H54.9773ZM59.81 21.0118L58.7379 18.6562L57.6492 21.0118H59.81Z" fill="#252628"></path><path fill-rule="evenodd" clip-rule="evenodd" d="M74.0615 16.1504H77.7399C79.1089 16.1504 80.2306 17.1528 80.2306 18.3891C80.2306 19.5084 79.3234 20.4272 78.1357 20.5943L80.2306 23.6683H78.6471L76.5687 20.6277H75.4471V23.6683H74.0615V16.1504ZM77.7399 19.4416C78.3832 19.4416 78.911 18.9738 78.911 18.3891C78.911 17.8043 78.3832 17.3365 77.7399 17.3365H75.4471V19.4416H77.7399Z" fill="#252628"></path><path fill-rule="evenodd" clip-rule="evenodd" d="M87.5381 19.9093C87.5381 17.7542 89.2701 16 91.3979 16C93.5423 16 95.2577 17.7542 95.2577 19.9093C95.2577 22.0644 93.5258 23.8186 91.3979 23.8186C89.2701 23.8186 87.5381 22.0644 87.5381 19.9093ZM88.9237 19.9093C88.9237 21.2959 90.0289 22.4153 91.3979 22.4153C92.767 22.4153 93.8722 21.2959 93.8722 19.9093C93.8722 18.5227 92.767 17.4033 91.3979 17.4033C90.0289 17.4033 88.9237 18.5227 88.9237 19.9093Z" fill="#252628"></path><path d="M125.163 28.8806H124.569V28.6467H126.004V28.8806H125.411V30.5346H125.163V28.8806Z" fill="#252628"></path><path d="M126.466 30.5346H126.235V28.6467H126.598L127.06 30.1002C127.077 30.1503 127.093 30.2004 127.11 30.2505C127.126 30.2004 127.143 30.1503 127.159 30.1002L127.637 28.6467H128V30.5346H127.753V28.9307C127.736 28.9809 127.72 29.0477 127.703 29.0978L127.225 30.5346H126.978L126.516 29.0978C126.499 29.0477 126.483 28.9809 126.466 28.9307V30.5346Z" fill="#252628"></path></svg> 