<?xml version="1.0" encoding="UTF-8"?> <svg xmlns="http://www.w3.org/2000/svg" width="160" height="60" viewBox="0 0 160 60" fill="none"><path fill-rule="evenodd" clip-rule="evenodd" d="M85.8364 29.4494C86.5198 30.0895 87.2153 30.72 87.8987 31.362C87.892 33.372 87.8939 35.3811 87.8939 37.3911C87.1934 36.7786 86.5283 36.1291 85.8365 35.5069L85.8364 29.4494ZM87.4561 28.0494C86.8169 28.4205 86.1862 28.8031 85.5662 29.2037C84.8379 29.6463 84.0422 29.9606 83.2672 30.3079C83.2854 32.3341 83.2725 34.3608 83.2743 36.3871C83.015 36.6446 82.7533 36.9013 82.5016 37.1645C82.5544 37.1616 82.6595 37.154 82.7121 37.1503C82.8958 36.9546 83.0872 36.7638 83.2767 36.573C84.1466 37.2828 85.0035 38.0079 85.8677 38.7243C86.0101 38.8616 86.1715 38.657 86.3102 38.6073C87.6996 37.8499 89.0125 36.9575 90.444 36.2773C90.466 34.3895 90.4507 32.502 90.4537 30.6132C90.7121 30.3556 90.9738 30.099 91.2264 29.8357C91.1756 29.8366 91.0746 29.8409 91.0231 29.8428C90.7818 30.0403 90.5379 30.2326 90.2957 30.4272C89.3484 29.6353 88.4053 28.8374 87.4561 28.0494ZM47.7723 29.5089C48.4421 30.5965 49.056 31.7203 49.6741 32.8383C49.0359 33.3048 48.4192 33.7999 47.7866 34.274C47.757 32.6866 47.7867 31.0973 47.7723 29.5089ZM49.71 28.0447C49.1273 28.4272 48.5407 28.805 47.9445 29.1655C47.0728 29.7093 46.1279 30.1185 45.2149 30.5869C45.2178 32.5177 45.2097 34.449 45.2173 36.3798C44.936 36.5888 44.625 36.7542 44.3513 36.9736C44.38 37.0242 44.4397 37.1258 44.4685 37.1764C44.7718 36.9731 45.0713 36.7648 45.3824 36.573C46.1661 37.32 46.9613 38.0555 47.7508 38.7959C49.2274 37.7025 50.6761 36.5702 52.1383 35.457C52.3259 35.4189 52.1719 35.1154 52.0522 35.2327C51.2599 35.8451 50.4911 36.4891 49.7102 37.1168C49.0977 36.511 48.4896 35.9025 47.88 35.2947C47.6828 35.1221 47.7997 34.834 47.7892 34.6079C49.0886 33.6463 50.348 32.6298 51.6503 31.672C51.0502 30.4415 50.3483 29.2571 49.71 28.0447ZM25.2463 29.4708C25.9295 30.5898 26.6161 31.705 27.2917 32.8287C26.6046 33.3105 25.9233 33.798 25.2439 34.2883C25.2371 32.6828 25.2338 31.0763 25.2463 29.4708ZM27.3321 28.047C26.5053 28.524 25.7064 29.0444 24.8968 29.5471C24.2106 29.9039 23.5136 30.2406 22.8226 30.5869C22.8254 32.5187 22.8198 34.4505 22.8274 36.3822C22.5327 36.6104 22.1886 36.7743 21.9206 37.0358C21.9723 37.0662 22.0748 37.1283 22.1264 37.1598C22.358 36.9605 22.5871 36.7572 22.8417 36.5874C23.6981 37.2971 24.5064 38.0656 25.3608 38.7791C25.4029 38.7573 25.4876 38.7129 25.5307 38.6909C26.9774 37.5729 28.4392 36.4715 29.887 35.3544L29.7076 35.197C28.9019 35.8228 28.1181 36.4816 27.32 37.1169C26.6607 36.5254 26.0229 35.9105 25.3655 35.3163C25.1416 35.1531 25.267 34.8436 25.2507 34.6127C26.6009 33.6273 27.9517 32.6414 29.2817 31.6292C28.6177 30.4424 27.9751 29.2452 27.3321 28.047ZM156.551 33.0052C156.865 33.2685 157.175 33.5365 157.489 33.8018C157.632 33.8877 157.562 34.067 157.582 34.2025C157.573 35.2356 157.595 36.2721 157.57 37.3052C157.336 36.7766 156.984 36.2849 156.489 35.972C155.77 35.5036 154.782 35.4765 154.051 35.9313C153.716 36.1163 153.448 36.3926 153.194 36.6731C153.557 35.9671 154.143 35.41 154.695 34.8509C155.324 34.2463 155.954 33.6425 156.551 33.0052ZM155.524 29.4087C155.927 29.9858 156.461 30.5473 157.192 30.6656C157.92 30.8363 158.626 30.4428 159.103 29.9191C158.45 31.1239 157.436 32.0912 156.388 32.9574C156.105 32.6579 155.8 32.3788 155.52 32.0774C155.531 31.1883 155.521 30.2978 155.524 29.4087ZM159.525 27.6058C159.593 27.7814 159.615 27.9774 159.529 28.152C159.318 28.6337 158.742 28.8188 158.252 28.8102C157.739 28.7644 157.339 28.3967 156.993 28.0494C156.414 28.4367 155.831 28.8212 155.252 29.2085C154.584 29.6569 153.847 29.9879 153.106 30.296C153.103 31.2442 153.107 32.1905 153.104 33.1387C153.644 33.5881 154.2 34.0174 154.73 34.479C154.324 34.9084 153.923 35.3438 153.539 35.7931C153.145 36.2663 152.773 36.8128 152.75 37.4482C152.727 38.1703 153.037 38.9522 153.678 39.3346C153.961 39.5006 154.306 39.6485 154.635 39.5206C154.225 39.3748 153.721 39.079 153.757 38.581C153.871 38.1098 154.432 37.7945 154.898 37.9299C155.381 38.0673 155.78 38.4117 156.089 38.7981C157.331 37.9061 158.639 37.1091 159.998 36.4059C159.988 35.2032 160.015 33.9973 159.986 32.7953C159.386 32.3755 158.814 31.9181 158.221 31.4907C158.849 30.6979 159.48 29.8595 159.742 28.8673C159.84 28.4487 159.873 27.9206 159.525 27.6058ZM53.024 26.4087C53.4116 26.1435 53.9016 26.1597 54.3495 26.1024C54.0117 26.3686 53.6366 26.6777 53.5906 27.1365C53.5149 27.5468 53.7753 27.9159 54.0787 28.1621C54.6308 28.6028 55.3399 28.8489 55.7896 29.4137C56.0059 29.6865 56.137 30.0318 56.1275 30.3819C56.1246 32.2326 56.1294 34.0823 56.1246 35.932C56.6182 36.3298 57.114 36.7229 57.6068 37.1206C57.7503 37.0281 57.8939 36.9357 58.0384 36.843C58.0318 34.8235 58.0488 32.803 58.0298 30.7844C57.7762 30.4859 57.425 30.2722 57.135 30.0061C57.847 29.3526 58.5446 28.6819 59.2709 28.0447C59.9025 28.6629 60.5665 29.2476 61.2144 29.8487C60.9685 30.108 60.7155 30.3606 60.4556 30.6061C60.4508 32.3814 60.4556 34.1567 60.4527 35.9321C61.0996 36.4319 61.7466 36.9327 62.4 37.425C62.492 37.3714 62.5848 37.3191 62.6795 37.2667C62.6699 35.0984 62.6805 32.9309 62.6736 30.7626C62.3742 30.5078 62.0641 30.2646 61.7684 30.0051C62.467 29.3469 63.1742 28.7001 63.8766 28.0466C64.5761 28.5923 65.2765 29.138 65.9722 29.6884C66.2134 29.4232 66.4603 29.1599 66.7358 28.9281C66.7712 28.9786 66.8439 29.0807 66.8793 29.1313C66.2841 29.6598 65.6927 30.1949 65.1157 30.7435C65.0658 32.472 65.1147 34.2063 65.0917 35.9358C63.5769 36.928 61.9952 37.8334 60.4583 38.7987C59.6477 38.2197 58.8603 37.609 58.0602 37.0167C57.3425 37.5919 56.6238 38.1681 55.9014 38.7376C55.798 38.8521 55.6918 38.6852 55.6066 38.6374C54.931 38.0965 54.2593 37.5508 53.5751 37.0224C53.288 37.2723 52.9866 37.5059 52.6986 37.7559C52.6527 37.712 52.5627 37.6252 52.5168 37.5823C52.868 37.34 53.2115 37.0853 53.5627 36.8429C53.5647 35.1669 53.5647 33.4917 53.5627 31.8156C53.5618 31.3673 53.4039 30.9132 53.0967 30.5812C52.7589 30.2158 52.3044 29.9592 52.0355 29.5309C51.7378 29.0329 51.7111 28.4157 51.8249 27.8594C51.9916 27.231 52.4921 26.7521 53.024 26.4087ZM124.593 25.8286C125.213 25.2868 125.797 24.7049 126.43 24.1783C126.966 24.7421 127.531 25.2781 128.075 25.8334C127.421 26.443 126.764 27.0478 126.102 27.6478C125.602 27.0382 125.087 26.443 124.593 25.8286ZM77.482 31.8008C77.861 31.8103 78.1519 32.0922 78.3481 32.3898C78.3453 33.9476 78.3491 35.5064 78.3481 37.0643C78.3787 37.5422 78.0487 37.951 77.6879 38.2257C77.3396 38.5014 76.8668 38.511 76.4439 38.488C76.42 36.4533 76.4428 34.4152 76.4342 32.3803C76.7079 32.0836 77.0543 31.7951 77.482 31.8008ZM76.4346 30.3484C77.0223 30.6461 77.7782 30.7363 78.3485 30.3508C78.3466 30.9089 78.3466 31.4694 78.3485 32.0274C78.1169 31.8023 77.8194 31.6234 77.4872 31.6244C77.0969 31.6157 76.7381 31.7994 76.4346 32.0274C76.4366 31.4684 76.4337 30.9084 76.4346 30.3484ZM77.1496 25.2639C77.5516 25.6073 77.9472 25.9575 78.3482 26.3037C78.3491 27.5343 78.3454 28.765 78.3482 29.9955C78.1578 30.1825 77.9496 30.38 77.6712 30.4153C77.2175 30.5106 76.7759 30.287 76.4343 30.0075C76.4363 28.5708 76.4353 27.1347 76.4343 25.6979C76.6737 25.5549 76.9124 25.4118 77.1496 25.2639ZM79.1069 23.2892C78.2075 24.0152 77.328 24.7635 76.437 25.5C76.4275 24.8055 76.4491 24.1124 76.4251 23.4179C76.2874 23.4113 76.2267 23.4733 76.2457 23.604C76.2409 28.513 76.2473 33.4216 76.2434 38.3307C75.7573 38.238 75.2702 38.1413 74.7889 38.0326C74.7812 33.8924 74.7884 29.7531 74.7865 25.612C74.7761 25.0883 74.6056 24.5618 74.2602 24.162C73.8295 23.6536 73.1563 23.4175 72.5067 23.3726C71.7363 23.3507 71.0301 23.7542 70.4923 24.2742C69.9976 24.7426 69.7321 25.4665 69.8726 26.1391C69.933 25.7222 70.0693 25.2524 70.454 25.0206C70.876 24.8412 71.4382 24.9858 71.6909 25.3807C71.9071 25.6993 71.9287 26.0976 71.9373 26.4706C71.9392 27.5896 71.9362 28.7086 71.9373 29.8285C71.1966 29.84 70.322 29.9592 69.8941 30.6442C69.4635 31.1803 69.3305 31.9406 69.6262 32.5712C69.8205 33.195 70.4711 33.5167 71.0759 33.6157C70.7372 33.3974 70.3926 33.013 70.5926 32.5855C70.8616 32.1562 71.4729 32.0932 71.9275 32.2182C71.9457 34.2043 71.937 36.1895 71.9323 38.1756C71.2529 38.4122 70.5916 38.8229 70.229 39.4611C69.9648 39.9162 69.9581 40.4604 69.9801 40.9708C70.0615 41.8656 70.6538 42.6826 71.4491 43.0909C72.05 43.3714 72.7265 43.38 73.3772 43.3581C75.2241 43.2484 76.9787 42.5176 78.8293 42.4567C79.3805 42.4155 79.7035 43.0228 79.559 43.4989C79.4489 43.9291 79.0872 44.2201 78.7456 44.4719C79.3953 44.3345 80.0422 44.0912 80.5494 43.6514C81.1216 43.1678 81.3848 42.3879 81.3485 41.6553C81.3055 40.9302 80.7188 40.3907 80.1093 40.0788C79.3065 39.6095 78.3371 39.714 77.4539 39.8094C75.7945 40.0002 74.1774 40.5254 72.5017 40.5702C71.9335 40.6084 71.4028 40.2072 71.2888 39.652C71.1606 39.1169 71.5965 38.6488 72.0376 38.419C72.9925 37.9698 74.0917 38.1361 75.0878 38.3451C76.2428 38.4654 77.3266 38.9352 78.4825 39.0534C79.139 39.1278 79.8362 39.002 80.3749 38.6052C80.9298 38.2636 81.1801 37.5981 81.1953 36.9715C81.2021 33.0641 81.1882 29.1571 81.2026 25.2497C81.5605 24.9397 81.9551 24.6617 82.2672 24.303C81.8307 24.4108 81.5572 24.8186 81.2003 25.0685C80.4948 24.4835 79.8045 23.8835 79.1069 23.2892ZM13.1994 25.0597C14.1879 24.3252 15.1573 23.5639 16.1468 22.8322C16.1515 25.2571 16.1458 27.6831 16.1496 30.109C16.9869 29.4202 17.8308 28.74 18.6595 28.0418C19.3246 28.7295 19.9457 29.4603 20.6308 30.1261C20.9198 29.9191 21.2164 29.7226 21.5198 29.5375C21.4653 29.922 21.004 30.0536 20.7648 30.3217C20.7677 31.6477 20.7648 32.9728 20.7657 34.2987C20.7849 35.29 20.6413 36.2744 20.6118 37.2646C20.5667 38.3388 20.1486 39.4369 19.3084 40.1417C18.6251 40.7504 17.6912 40.9698 16.8003 41.0432C16.785 41.0642 16.7525 41.1071 16.7362 41.129L16.7602 41.0508C16.4529 41.0508 16.1468 41.0394 15.8405 41.0166C16.2253 40.818 16.6607 40.6912 16.9639 40.3631C17.3123 39.9756 17.7181 39.6066 17.8893 39.1C18.1697 38.3273 18.1783 37.4945 18.206 36.6837C18.1984 34.8664 18.2146 33.0481 18.1975 31.2318C17.7917 30.7043 17.3055 30.2387 16.8749 29.7293C16.6396 29.9802 16.3574 30.1911 16.1554 30.4695C16.1391 32.345 16.1534 34.2215 16.1486 36.0969C16.3927 36.3393 16.6357 36.5835 16.8817 36.8239C17.0789 36.6264 17.2759 36.428 17.473 36.2296C17.5171 36.2724 17.6041 36.3584 17.6481 36.4013C16.6912 37.1473 15.744 37.9048 14.787 38.6497C14.1813 38.1136 13.59 37.5623 12.9937 37.0156C12.7937 37.1644 12.5938 37.3151 12.3928 37.4629C12.3498 37.4181 12.2656 37.3285 12.2226 37.2836C12.6819 36.9888 13.1326 36.6808 13.5872 36.3802C13.5862 33.0451 13.5862 29.7111 13.5872 26.376C13.5775 26.1214 13.59 25.8466 13.4551 25.6196C13.366 25.4459 13.1651 25.3906 13.0148 25.2856C12.9812 25.1751 13.1401 25.1284 13.1994 25.0597ZM98.9425 24.93C100.091 24.184 101.237 23.4313 102.389 22.691C102.399 27.0926 102.381 31.4951 102.399 35.8966C102.648 36.2343 102.987 36.512 103.289 36.8087C103.478 36.6065 103.676 36.4128 103.871 36.2173C103.917 36.263 104.009 36.3547 104.056 36.3995C103.136 37.194 102.245 38.0192 101.32 38.8053C100.737 38.2091 100.134 37.6339 99.5561 37.0348C99.2967 37.2646 99.0594 37.5166 98.8154 37.7618C98.7656 37.7236 98.666 37.6462 98.6164 37.6082C99.0574 37.1874 99.5303 36.8021 99.9761 36.3851C99.9724 33.0492 99.979 29.7132 99.9724 26.3781C99.9616 25.7542 99.6429 25.0073 98.9425 24.93ZM45.5254 22.6739C46.0956 23.6699 45.7387 25.0197 44.8804 25.7371C44.3531 26.0796 43.7465 26.2685 43.1522 26.4602C43.1656 30.5336 43.1542 34.6079 43.156 38.6813C43.1981 38.8674 43.0268 39.0132 42.8508 38.9389C42.5034 38.9227 42.4115 38.5574 42.2641 38.3112C40.1264 34.3924 38.0117 30.4602 35.8566 26.5499C35.8154 29.4261 35.8557 32.3051 35.8365 35.1821C36.8547 35.374 37.846 35.8633 38.5121 36.6704C38.8211 36.4319 39.0211 36.0122 39.4173 35.9158C39.3169 36.098 39.1704 36.2477 39.0307 36.4004C38.2604 37.2504 37.492 38.1042 36.7226 38.9561C36.3657 38.5078 35.8902 38.0823 35.2948 38.0212C34.9035 38.006 34.4509 38.026 34.1657 38.3341C33.8375 38.626 33.6175 39.1182 33.8518 39.5352C34.1265 40.1332 34.8173 40.2955 35.3992 40.4385C34.6719 40.5816 33.8577 40.4976 33.271 40.0121C32.8041 39.6143 32.3801 39.1096 32.2586 38.4934C32.095 37.6444 32.3495 36.7008 32.9859 36.0989C33.6817 35.413 34.7017 35.1573 35.6567 35.2117C35.6825 33.9581 35.671 32.7047 35.6624 31.4512C35.1983 31.3778 34.5658 31.4436 34.3495 31.9272C34.2241 32.3193 34.519 32.6494 34.8108 32.864C34.449 32.8011 34.0471 32.7324 33.7859 32.4528C33.4777 32.0742 33.2385 31.6267 33.1495 31.144C33.0606 30.523 33.2242 29.8151 33.7429 29.4154C34.2854 28.9967 35.0079 28.9394 35.6701 28.9547V26.3046C35.4299 25.945 35.1993 25.5329 34.7869 25.3468C34.5171 25.2352 34.1649 25.1951 33.9324 25.405C33.6108 25.6769 33.5333 26.1091 33.4061 26.4877C33.2827 25.5634 33.3755 24.515 34.0252 23.79C34.8099 22.7769 36.4702 22.7396 37.3285 23.6765C37.6998 24.0571 37.9543 24.5264 38.2071 24.9891C39.7956 27.809 41.3525 30.647 42.9572 33.4574C42.9668 31.1269 42.9716 28.7946 42.9553 26.4639C42.6796 26.3571 42.3726 26.36 42.0921 26.2626C41.5696 26.1252 41.1342 25.7895 40.7477 25.426C40.5065 25.7084 40.2633 25.9898 40.0385 26.2846C39.9859 26.2559 39.8816 26.1997 39.8291 26.1711C40.652 25.137 41.5342 24.1496 42.3908 23.1422C42.8395 23.6135 43.4253 23.9989 44.0931 24.0418C44.7904 23.9618 45.4766 23.4056 45.5254 22.6739ZM116.693 28.3976C116.704 30.4162 116.693 32.4343 116.697 34.4528C116.352 34.5969 116.011 34.7491 115.666 34.894C115.167 34.1939 114.778 33.4064 114.578 32.5688C114.357 31.4717 114.415 30.2827 114.927 29.2705C115.52 28.9881 116.105 28.6924 116.693 28.3976ZM121.498 22.0014C121.334 21.9964 121.174 22.0285 121.022 22.1373C121.367 22.2165 121.731 22.2503 122.053 22.4115C122.34 22.5489 122.53 22.8332 122.63 23.127C122.683 23.4447 122.45 23.7376 122.171 23.8569C121.669 24.0877 121.1 23.9808 120.589 23.8425C119.364 23.4686 118.171 22.9849 116.922 22.693C116.28 22.5566 115.607 22.4278 114.958 22.5976C114.254 22.795 113.541 23.1309 113.125 23.7567C112.589 24.4464 112.522 25.3951 112.783 26.2059C112.999 26.7468 113.435 27.2787 114.051 27.3483C113.85 27.0907 113.504 26.8307 113.604 26.4635C113.659 26.0991 113.811 25.7294 114.104 25.4929C114.397 25.2725 114.798 25.2753 115.137 25.3736C116.383 25.6045 117.599 25.9531 118.831 26.2441C119.666 26.4206 120.467 26.7311 121.307 26.8856C121.321 27.8234 121.31 28.7611 121.314 29.6998C120.863 30.0976 120.411 30.4949 119.965 30.8994C120.415 31.2457 120.856 31.6005 121.312 31.9392C121.318 33.2739 121.309 34.6103 121.319 35.9458C120.529 36.5363 119.488 36.6818 118.53 36.5491C117.47 36.4861 116.544 35.8509 115.841 35.0992C116.129 34.8988 116.458 34.77 116.769 34.6079C117.643 34.1787 118.507 33.7293 119.388 33.3153C119.416 31.2138 119.392 29.1112 119.4 27.0097C117.915 27.6402 116.442 28.3004 114.951 28.9175C115.291 28.1115 115.836 27.374 116.568 26.8809C116.787 26.6815 117.009 26.4726 117.309 26.4039C117.009 26.4249 116.698 26.4149 116.424 26.5541C114.324 27.4012 112.532 29.249 112.137 31.5194C111.987 32.6718 112.095 33.8686 112.498 34.9609C113.016 36.243 113.928 37.3821 115.113 38.109C115.681 38.4533 116.29 38.7305 116.926 38.9221C118.45 39.1749 120.084 38.9564 121.417 38.1494C122.296 37.5379 123.113 36.7452 123.481 35.7168C123.877 34.8439 124.036 33.8905 124.056 32.9384C123.872 33.1778 123.764 33.4626 123.608 33.7183C123.102 34.5653 122.447 35.3328 121.649 35.9195C121.659 34.5887 121.637 33.2579 121.661 31.9272C122.113 31.6019 122.536 31.2394 122.991 30.916C122.572 30.4829 122.096 30.109 121.651 29.7045C121.643 28.7715 121.662 27.8375 121.642 26.9046C122.517 26.8483 123.403 26.4567 123.874 25.6907C124.364 24.9037 124.361 23.8314 123.888 23.0387C123.516 22.5483 122.931 22.2326 122.326 22.142C122.055 22.1201 121.772 22.0098 121.498 22.0014ZM4.61491 28.4C4.61112 30.4224 4.62684 32.4448 4.60776 34.4672C4.26901 34.5999 3.93585 34.7448 3.60297 34.8917C2.9886 34.0055 2.60682 32.9623 2.4307 31.9034C2.38288 31.0096 2.54935 30.1042 2.86136 29.2657C3.45079 28.9862 4.02734 28.6843 4.61491 28.4ZM9.3829 22.0013C9.2315 22.0086 9.0844 22.0469 8.94258 22.1373C9.52643 22.2537 10.2106 22.3319 10.579 22.8623C10.7637 23.0579 10.7062 23.3583 10.5216 23.53C10.1723 23.945 9.57275 24.0752 9.05988 23.9426C7.32106 23.5334 5.6766 22.7378 3.89003 22.5308C2.93313 22.4049 1.99774 22.8637 1.33741 23.5277C0.727833 24.1372 0.506245 25.0626 0.626903 25.8983C0.761786 26.5594 1.25321 27.2462 1.96422 27.3435C1.5432 26.8875 1.46329 26.0957 1.89967 25.6216C2.14649 25.3163 2.58524 25.2744 2.94985 25.3306C4.33456 25.5872 5.68374 26.0027 7.06466 26.2822C7.83786 26.4921 8.60198 26.7425 9.39233 26.8856C9.4067 27.8271 9.4067 28.7678 9.39233 29.7093C8.88232 30.089 8.39526 30.4977 7.89476 30.8898C8.38189 31.2533 8.88425 31.5939 9.38769 31.9344C9.42021 33.2662 9.3829 34.5975 9.40677 35.9291C8.58289 36.5635 7.47896 36.6665 6.47624 36.5492C5.41112 36.4901 4.46558 35.8575 3.76801 35.0897C4.93749 34.4676 6.12935 33.881 7.32549 33.3106C7.36752 31.2109 7.33307 29.1102 7.34451 27.0096C5.84979 27.6344 4.37037 28.2927 2.88045 28.927C3.31111 27.829 4.1871 26.9395 5.23213 26.411C4.9593 26.4272 4.67316 26.4072 4.41877 26.5255C2.46279 27.2953 0.85085 28.95 0.2442 30.9685C-0.161519 32.2507 -0.0308542 33.6524 0.409319 34.906C0.954781 36.3007 1.96379 37.5352 3.30161 38.2401C4.05293 38.6273 4.86151 38.9902 5.7227 39.0009C7.50548 39.1487 9.38097 38.4782 10.5839 37.1406C11.1092 36.5787 11.3738 35.8462 11.6342 35.1373C11.8754 34.4391 11.9844 33.6958 11.9595 32.9575C11.3825 34.0985 10.615 35.1702 9.56717 35.9267C9.57382 34.5998 9.56481 33.2733 9.56946 31.9463C10.0251 31.6001 10.4824 31.2543 10.9236 30.8898C10.4709 30.4901 10.0211 30.0909 9.56946 29.6902C9.57153 28.7572 9.56753 27.8223 9.56946 26.8903C10.5886 26.8369 11.7613 26.3008 12.0359 25.2352C12.2274 24.5398 12.3274 23.7161 11.8996 23.0864C11.5063 22.64 10.9963 22.2522 10.3972 22.1444C10.0655 22.1156 9.71578 21.9855 9.3829 22.0013Z" fill="#252628"></path><path fill-rule="evenodd" clip-rule="evenodd" d="M129.503 30.3408C130.317 29.6301 131.114 28.9013 131.933 28.1963C132.521 28.8421 133.129 29.4698 133.706 30.1253C134.571 29.5023 135.401 28.8326 136.258 28.1963C136.858 28.8373 137.446 29.4889 138.052 30.1253C138.901 29.4842 139.739 28.8297 140.594 28.1972C141.177 28.846 141.779 29.4785 142.37 30.1214C142.731 29.8915 143.064 29.6158 143.432 29.3954C143.46 29.6091 143.265 29.7065 143.129 29.8247C142.931 29.9831 142.74 30.1491 142.543 30.3065C142.527 32.0827 142.547 33.859 142.533 35.6352C142.872 35.9865 143.219 36.3313 143.572 36.6693C143.758 36.4757 143.95 36.2858 144.132 36.0874C144.186 36.1217 144.296 36.1894 144.351 36.2238C143.458 37.1004 142.538 37.9505 141.621 38.8023C140.975 38.042 140.297 37.3065 139.667 36.5329C139.82 36.3926 139.969 36.2467 140.116 36.0998C140.118 34.5677 140.116 33.0357 140.116 31.5045C139.628 30.9618 139.142 30.4171 138.639 29.8886C138.493 30.0365 138.348 30.1834 138.204 30.3321C138.202 32.2477 138.212 34.1632 138.2 36.0787C138.442 36.3497 138.714 36.5921 138.96 36.862C138.299 37.4467 137.662 38.0591 137.004 38.6497C136.39 38.0058 135.786 37.3529 135.191 36.6912C135.36 36.4833 135.7 36.3326 135.647 36.0158C135.639 34.522 135.654 33.0271 135.639 31.5343C135.229 30.9657 134.77 30.4152 134.295 29.8963C134.157 30.0432 134.016 30.1873 133.874 30.3313C133.878 32.1868 133.864 34.0431 133.881 35.8986C134.082 36.24 134.382 36.5196 134.631 36.8277C133.989 37.5003 133.326 38.1537 132.657 38.7994C132.018 38.0403 131.356 37.3009 130.712 36.5463C130.913 36.3907 131.116 36.2372 131.318 36.0817C131.312 34.5143 131.306 32.9461 131.32 31.3787C130.943 30.9132 130.53 30.4782 130.134 30.0289C129.853 30.2369 129.605 30.4982 129.283 30.6452C129.267 30.4992 129.412 30.4295 129.503 30.3408ZM93.9942 28.2059C94.5417 28.7029 95.0018 29.2886 95.5101 29.8257C96.0632 29.2972 96.6038 28.7535 97.1378 28.2049C97.5263 28.4529 97.9312 28.8011 98.4296 28.701C98.7808 28.6771 98.9636 28.3337 99.2622 28.1935C99.2631 28.9232 99.0947 29.6902 98.6104 30.2569C98.0554 30.9189 97.0056 31.1126 96.2632 30.6585C95.978 30.5202 95.7885 30.255 95.5225 30.0918C95.5291 32.0875 95.5262 34.0822 95.5244 36.0779C95.9186 36.3804 96.3139 36.6817 96.7196 36.9698C97.0144 36.7771 97.241 36.4223 97.6133 36.3889C96.7386 37.2188 95.8221 38.0087 94.9101 38.7996C94.2249 38.1556 93.5244 37.5279 92.8469 36.8765C92.5827 37.113 92.3387 37.3706 92.0872 37.6195C92.0469 37.5729 91.9666 37.4802 91.9264 37.4336C92.2584 37.0654 92.6288 36.7334 92.9685 36.3719C92.956 34.6643 92.9752 32.9566 92.9599 31.2501C92.778 30.8188 92.4623 30.4449 92.2336 30.0328C91.9206 30.2169 91.6929 30.6004 91.3034 30.6137C92.1886 29.798 93.1139 29.0263 93.9942 28.2059ZM147.75 29.5042C148.482 30.5831 149.125 31.7231 149.812 32.8335C149.115 33.3096 148.438 33.8132 147.745 34.2931C147.756 32.6971 147.746 31.1001 147.75 29.5042ZM149.838 28.047C149.229 28.4162 148.618 28.7849 148.018 29.1656C147.186 29.7418 146.232 30.1004 145.35 30.5869C145.36 32.5178 145.35 34.45 145.355 36.3799C145.051 36.5802 144.75 36.7843 144.446 36.9809C144.485 37.0286 144.564 37.1264 144.604 37.174C144.866 36.9804 145.103 36.7505 145.386 36.5826C146.175 37.3142 147.001 38.0063 147.802 38.7266C147.879 38.8487 147.99 38.7238 148.068 38.6741C149.511 37.5657 150.958 36.4638 152.403 35.3591C152.233 35.0634 152.041 35.35 151.872 35.4712C151.193 36.0217 150.516 36.5716 149.836 37.1192C149.14 36.4867 148.468 35.8308 147.759 35.2135C147.748 35.015 147.748 34.816 147.757 34.6174C149.111 33.6395 150.449 32.6388 151.793 31.6458C151.146 30.4429 150.496 29.2423 149.838 28.047ZM102.509 32.552C103.494 31.0439 104.501 29.549 105.511 28.056C105.949 28.4266 106.489 28.6562 107.061 28.7143C107.62 28.7152 108.096 28.3842 108.517 28.0532C108.411 28.8669 108.139 29.7121 107.512 30.2778C106.966 30.7776 106.137 30.8979 105.449 30.6537C105.044 30.5163 104.668 30.3007 104.333 30.0364C104.273 30.1757 104.224 30.3198 104.189 30.4667C105.588 32.5673 106.962 34.687 108.336 36.8048C108.652 36.6006 108.929 36.343 109.207 36.0922C109.262 36.1264 109.37 36.1952 109.424 36.2295C108.436 37.1081 107.416 37.9513 106.402 38.8022C105.1 36.7218 103.826 34.6231 102.509 32.552Z" fill="#252628"></path><path fill-rule="evenodd" clip-rule="evenodd" d="M123.839 30.4639C124.681 29.695 125.553 28.9556 126.403 28.1954C127.009 28.8822 127.597 29.5843 128.2 30.274C128.513 30.0298 128.794 29.7398 129.14 29.5385C129.114 29.6482 129.085 29.7618 128.982 29.8237C128.723 30.0384 128.465 30.254 128.204 30.4629C128.208 32.242 128.196 34.0202 128.21 35.7993C128.551 36.1828 128.903 36.5587 129.221 36.9631C129.486 36.802 129.707 36.5815 129.959 36.4022C130.013 36.4308 130.121 36.4872 130.175 36.5148C129.333 37.3009 128.461 38.0545 127.584 38.7994C127.001 38.1012 126.403 37.4143 125.807 36.7266C125.548 36.9612 125.332 37.2455 125.047 37.4497C125.007 37.4124 124.927 37.3362 124.887 37.298C125.139 37.0595 125.378 36.8058 125.634 36.5692C125.654 34.9531 125.635 33.3353 125.644 31.7191C125.628 31.494 125.701 31.2279 125.525 31.0485C125.213 30.6622 124.926 30.2558 124.594 29.8866C124.347 30.0861 124.112 30.3026 123.839 30.4639Z" fill="#252628"></path></svg> 