<?xml version="1.0" encoding="UTF-8"?> <svg xmlns="http://www.w3.org/2000/svg" width="160" height="60" viewBox="0 0 160 60" fill="none"><path d="M44.9673 15C42.5164 15 40.5633 16.8955 40.5633 19.3314V27.8039L33.2182 19.0269C32.1076 17.7024 31.066 17.1771 29.4423 17.1771C26.9914 17.1771 25 19.1563 25 21.5922V40.5849C25 43.0208 26.9914 45 29.4423 45C31.8932 45 33.8846 43.0208 33.8846 40.5849L33.8769 32.8584L41.4594 40.7447C42.2713 41.8105 43.5503 42.5184 44.9979 42.5184C47.4488 42.5184 49.4402 40.7904 49.4402 38.3469V19.3162C49.4555 16.8878 47.3646 15 44.9673 15Z" fill="#252628"></path><path d="M64.4673 35.0736L59.5349 27.4156V35.0736H57.421V24.2794H60.0557L64.5746 31.4197V24.2794H66.6885V35.0812H64.4673V35.0736Z" fill="#252628"></path><path d="M74.7842 24.051C77.7406 24.051 80.3753 26.1977 80.3753 29.6841C80.3753 33.1553 77.7406 35.302 74.7842 35.302C71.8431 35.302 69.2083 33.1553 69.2083 29.6841C69.2083 26.1977 71.8431 24.051 74.7842 24.051ZM74.7842 33.2619C76.4692 33.2619 78.1848 32.1048 78.1848 29.6689C78.1848 27.2329 76.4692 26.0759 74.7842 26.0759C73.1145 26.0759 71.3988 27.2329 71.3988 29.6689C71.3988 32.1048 73.1145 33.2619 74.7842 33.2619Z" fill="#252628"></path><path d="M89.6428 24.2794H91.8793L87.8506 35.0812H85.6754L81.662 24.2794H83.9751L86.8089 32.3027L89.6428 24.2794Z" fill="#252628"></path><path d="M99.4082 32.6072H94.9965L94.0928 35.0736H91.8563L96.0228 24.2718H98.4738L102.61 35.0736H100.312L99.4082 32.6072ZM95.7012 30.6889H98.7035L97.2023 26.6087L95.7012 30.6889Z" fill="#252628"></path><path d="M110.269 27.4309C110.162 26.8371 109.671 25.9084 108.293 25.9084C107.266 25.9084 106.592 26.5631 106.592 27.2786C106.592 27.8724 106.975 28.3443 107.772 28.4966L109.288 28.7858C111.264 29.1665 112.321 30.4453 112.321 31.9678C112.321 33.6273 110.927 35.302 108.4 35.302C105.52 35.302 104.249 33.4598 104.08 31.9221L106.041 31.4045C106.133 32.4702 106.883 33.4293 108.415 33.4293C109.549 33.4293 110.177 32.866 110.177 32.1048C110.177 31.4806 109.702 30.9934 108.859 30.8259L107.343 30.5214C105.612 30.1713 104.494 29.0599 104.494 27.4309C104.494 25.5126 106.225 24.051 108.277 24.051C110.912 24.051 111.923 25.6344 112.168 26.8523L110.269 27.4309Z" fill="#252628"></path><path d="M119.935 24.051C122.891 24.051 125.526 26.1977 125.526 29.6841C125.526 33.1553 122.891 35.302 119.935 35.302C116.993 35.302 114.359 33.1553 114.359 29.6841C114.359 26.1977 116.993 24.051 119.935 24.051ZM119.935 33.2619C121.62 33.2619 123.335 32.1048 123.335 29.6689C123.335 27.2329 121.62 26.0759 119.935 26.0759C118.265 26.0759 116.549 27.2329 116.549 29.6689C116.549 32.1048 118.265 33.2619 119.935 33.2619Z" fill="#252628"></path><path d="M128.046 35.0736V24.2794H130.159V33.0639H135V35.0736H128.046Z" fill="#252628"></path></svg> 